REM DIRINDEX 1\6,1\2\7,1\2\8,1\2\9,1\3\10,1\3\11,1\4\12,1\4\13,1\4\14,1\5\15,1\5\16,1\5\17
REM DIRNAME cjc041,folder01,folder02,folder03,folder04,folder05,folder06,folder07,folder08,folder09,folder10,folder11,folder12,folder13,folder14,folder15,folder16
TITLE ""
FILE "3Q_t_0110-0125.mp3" MP3
  TRACK 01 AUDIO
    TITLE "10:cjc041_1824"
    INDEX 01 00:00:00
  TRACK 02 AUDIO
    TITLE "0:"
    INDEX 01 00:01:01
  TRACK 03 AUDIO
    TITLE "11:cjc041_1825"
    INDEX 01 00:01:54
  TRACK 04 AUDIO
    TITLE "0:"
    INDEX 01 00:03:57
  TRACK 05 AUDIO
    TITLE "10:cjc041_1826"
    INDEX 01 00:04:38
  TRACK 06 AUDIO
    TITLE "0:"
    INDEX 01 00:05:69
  TRACK 07 AUDIO
    TITLE "11:cjc041_1827"
    INDEX 01 00:06:45
  TRACK 08 AUDIO
    TITLE "0:"
    INDEX 01 00:07:54
  TRACK 09 AUDIO
    TITLE "10:cjc041_1828"
    INDEX 01 00:08:34
  TRACK 10 AUDIO
    TITLE "0:"
    INDEX 01 00:09:63
  TRACK 11 AUDIO
    TITLE "11:cjc041_1829"
    INDEX 01 00:10:39
  TRACK 12 AUDIO
    TITLE "0:"
    INDEX 01 00:11:52
  TRACK 13 AUDIO
    TITLE "10:cjc041_1830"
    INDEX 01 00:12:30
  TRACK 14 AUDIO
    TITLE "0:"
    INDEX 01 00:13:33
  TRACK 15 AUDIO
    TITLE "11:cjc041_1831"
    INDEX 01 00:14:15
  TRACK 16 AUDIO
    TITLE "0:"
    INDEX 01 00:16:02
  TRACK 17 AUDIO
    TITLE "10:cjc041_1832"
    INDEX 01 00:16:51
  TRACK 18 AUDIO
    TITLE "0:"
    INDEX 01 00:17:61
  TRACK 19 AUDIO
    TITLE "11:cjc041_1833"
    INDEX 01 00:18:41
  TRACK 20 AUDIO
    TITLE "0:"
    INDEX 01 00:20:39
  TRACK 21 AUDIO
    TITLE "10:cjc041_1834"
    INDEX 01 00:21:15
  TRACK 22 AUDIO
    TITLE "0:"
    INDEX 01 00:22:19
  TRACK 23 AUDIO
    TITLE "11:cjc041_1835"
    INDEX 01 00:22:72
  TRACK 24 AUDIO
    TITLE "0:"
    INDEX 01 00:23:57
  TRACK 25 AUDIO
    TITLE "10:cjc041_1836"
    INDEX 01 00:24:39
  TRACK 26 AUDIO
    TITLE "0:"
    INDEX 01 00:25:48
  TRACK 27 AUDIO
    TITLE "11:cjc041_1837"
    INDEX 01 00:26:24
  TRACK 28 AUDIO
    TITLE "0:"
    INDEX 01 00:27:24
  TRACK 29 AUDIO
    TITLE "10:cjc041_1838"
    INDEX 01 00:28:06
  TRACK 30 AUDIO
    TITLE "0:"
    INDEX 01 00:29:09
  TRACK 31 AUDIO
    TITLE "11:cjc041_1839"
    INDEX 01 00:29:68
  TRACK 32 AUDIO
    TITLE "0:"
    INDEX 01 00:31:04
  TRACK 33 AUDIO
    TITLE "10:cjc041_1840"
    INDEX 01 00:31:61
  TRACK 34 AUDIO
    TITLE "0:"
    INDEX 01 00:32:72
  TRACK 35 AUDIO
    TITLE "11:cjc041_1841"
    INDEX 01 00:33:50
  TRACK 36 AUDIO
    TITLE "0:"
    INDEX 01 00:36:27
  TRACK 37 AUDIO
    TITLE "10:cjc041_1842"
    INDEX 01 00:37:03
  TRACK 38 AUDIO
    TITLE "0:"
    INDEX 01 00:38:12
  TRACK 39 AUDIO
    TITLE "11:cjc041_1843"
    INDEX 01 00:38:71
  TRACK 40 AUDIO
    TITLE "0:"
    INDEX 01 00:39:60
  TRACK 41 AUDIO
    TITLE "10:cjc041_1844"
    INDEX 01 00:40:44
  TRACK 42 AUDIO
    TITLE "0:"
    INDEX 01 00:41:61
  TRACK 43 AUDIO
    TITLE "11:cjc041_1845"
    INDEX 01 00:42:37
  TRACK 44 AUDIO
    TITLE "0:"
    INDEX 01 00:44:61
  TRACK 45 AUDIO
    TITLE "10:cjc041_1846"
    INDEX 01 00:45:37
  TRACK 46 AUDIO
    TITLE "0:"
    INDEX 01 00:46:49
  TRACK 47 AUDIO
    TITLE "11:cjc041_1847"
    INDEX 01 00:47:25
  TRACK 48 AUDIO
    TITLE "0:"
    INDEX 01 00:49:33
  TRACK 49 AUDIO
    TITLE "10:cjc041_1848"
    INDEX 01 00:50:07
  TRACK 50 AUDIO
    TITLE "0:"
    INDEX 01 00:51:24
  TRACK 51 AUDIO
    TITLE "11:cjc041_1849"
    INDEX 01 00:52:02
  TRACK 52 AUDIO
    TITLE "0:"
    INDEX 01 00:53:00
  TRACK 53 AUDIO
    TITLE "10:cjc041_1850"
    INDEX 01 00:53:49
  TRACK 54 AUDIO
    TITLE "0:"
    INDEX 01 00:54:54
  TRACK 55 AUDIO
    TITLE "11:cjc041_1851"
    INDEX 01 00:55:34
  TRACK 56 AUDIO
    TITLE "0:"
    INDEX 01 00:57:39
  TRACK 57 AUDIO
    TITLE "10:cjc041_1852"
    INDEX 01 00:58:13
  TRACK 58 AUDIO
    TITLE "0:"
    INDEX 01 00:59:22
  TRACK 59 AUDIO
    TITLE "11:cjc041_1853"
    INDEX 01 01:00:00
  TRACK 60 AUDIO
    TITLE "0:"
    INDEX 01 01:01:03
  TRACK 61 AUDIO
    TITLE "10:cjc041_1854"
    INDEX 01 01:01:50
  TRACK 62 AUDIO
    TITLE "0:"
    INDEX 01 01:02:69
  TRACK 63 AUDIO
    TITLE "11:cjc041_1855"
    INDEX 01 01:03:47
  TRACK 64 AUDIO
    TITLE "0:"
    INDEX 01 01:05:54
